<svg width="62" height="64" viewBox="0 0 62 64" fill="none" xmlns="http://www.w3.org/2000/svg">
<g id="Dot">
<g id="Group 1">
<circle id="Ellipse 2" cx="0.683549" cy="0.683549" r="0.683549" transform="matrix(-0.866025 -0.5 -0.5 0.866025 27.0811 5.37402)" fill="#92BDF6"/>
<circle id="Ellipse 7" cx="0.683549" cy="0.683549" r="0.683549" transform="matrix(-0.866025 -0.5 -0.5 0.866025 41.8801 13.918)" fill="#92BDF6"/>
<circle id="Ellipse 3" cx="0.683549" cy="0.683549" r="0.683549" transform="matrix(-0.866025 -0.5 -0.5 0.866025 30.0408 7.0835)" fill="#92BDF6"/>
<circle id="Ellipse 8" cx="0.683549" cy="0.683549" r="0.683549" transform="matrix(-0.866025 -0.5 -0.5 0.866025 44.8411 15.6274)" fill="#92BDF6"/>
<circle id="Ellipse 4" cx="0.683549" cy="0.683549" r="0.683549" transform="matrix(-0.866025 -0.5 -0.5 0.866025 33.0012 8.79199)" fill="#92BDF6"/>
<circle id="Ellipse 9" cx="0.683549" cy="0.683549" r="0.683549" transform="matrix(-0.866025 -0.5 -0.5 0.866025 47.8008 17.3369)" fill="#92BDF6"/>
<circle id="Ellipse 5" cx="0.683549" cy="0.683549" r="0.683549" transform="matrix(-0.866025 -0.5 -0.5 0.866025 35.9609 10.5005)" fill="#92BDF6"/>
<circle id="Ellipse 10" cx="0.683549" cy="0.683549" r="0.683549" transform="matrix(-0.866025 -0.5 -0.5 0.866025 50.7603 19.0444)" fill="#92BDF6"/>
<circle id="Ellipse 6" cx="0.683549" cy="0.683549" r="0.683549" transform="matrix(-0.866025 -0.5 -0.5 0.866025 38.9209 12.209)" fill="#92BDF6"/>
<circle id="Ellipse 11" cx="0.683549" cy="0.683549" r="0.683549" transform="matrix(-0.866025 -0.5 -0.5 0.866025 53.72 20.7544)" fill="#92BDF6"/>
</g>
<g id="Group 15">
<circle id="Ellipse 2_2" cx="0.683549" cy="0.683549" r="0.683549" transform="matrix(-0.866025 -0.5 -0.5 0.866025 28.7898 2.41309)" fill="#92BDF6"/>
<circle id="Ellipse 7_2" cx="0.683549" cy="0.683549" r="0.683549" transform="matrix(-0.866025 -0.5 -0.5 0.866025 43.5896 10.9565)" fill="#92BDF6"/>
<circle id="Ellipse 3_2" cx="0.683549" cy="0.683549" r="0.683549" transform="matrix(-0.866025 -0.5 -0.5 0.866025 31.7502 4.12256)" fill="#92BDF6"/>
<circle id="Ellipse 8_2" cx="0.683549" cy="0.683549" r="0.683549" transform="matrix(-0.866025 -0.5 -0.5 0.866025 46.5498 12.6665)" fill="#92BDF6"/>
<circle id="Ellipse 4_2" cx="0.683549" cy="0.683549" r="0.683549" transform="matrix(-0.866025 -0.5 -0.5 0.866025 34.71 5.83105)" fill="#92BDF6"/>
<circle id="Ellipse 9_2" cx="0.683549" cy="0.683549" r="0.683549" transform="matrix(-0.866025 -0.5 -0.5 0.866025 49.5093 14.3755)" fill="#92BDF6"/>
<circle id="Ellipse 5_2" cx="0.683549" cy="0.683549" r="0.683549" transform="matrix(-0.866025 -0.5 -0.5 0.866025 37.6699 7.53857)" fill="#92BDF6"/>
<circle id="Ellipse 10_2" cx="0.683549" cy="0.683549" r="0.683549" transform="matrix(-0.866025 -0.5 -0.5 0.866025 52.4692 16.083)" fill="#92BDF6"/>
<circle id="Ellipse 6_2" cx="0.683549" cy="0.683549" r="0.683549" transform="matrix(-0.866025 -0.5 -0.5 0.866025 40.6292 9.24805)" fill="#92BDF6"/>
<circle id="Ellipse 11_2" cx="0.683549" cy="0.683549" r="0.683549" transform="matrix(-0.866025 -0.5 -0.5 0.866025 55.4294 17.793)" fill="#92BDF6"/>
</g>
<g id="Group 13">
<circle id="Ellipse 2_3" cx="0.683549" cy="0.683549" r="0.683549" transform="matrix(0.504952 -0.863147 -0.863147 -0.504952 56.1453 23.7407)" fill="#92BDF6"/>
<circle id="Ellipse 14" cx="0.683549" cy="0.683549" r="0.683549" transform="matrix(0.504952 -0.863147 -0.863147 -0.504952 57.854 20.7812)" fill="#92BDF6"/>
<circle id="Ellipse 7_3" cx="0.683549" cy="0.683549" r="0.683549" transform="matrix(0.504952 -0.863147 -0.863147 -0.504952 47.5164 38.4917)" fill="#92BDF6"/>
<circle id="Ellipse 3_3" cx="0.683549" cy="0.683549" r="0.683549" transform="matrix(0.504952 -0.863147 -0.863147 -0.504952 54.4194 26.6914)" fill="#92BDF6"/>
<circle id="Ellipse 8_3" cx="0.683549" cy="0.683549" r="0.683549" transform="matrix(0.504952 -0.863147 -0.863147 -0.504952 45.7905 41.4414)" fill="#92BDF6"/>
<circle id="Ellipse 4_3" cx="0.683549" cy="0.683549" r="0.683549" transform="matrix(0.504952 -0.863147 -0.863147 -0.504952 52.6936 29.6411)" fill="#92BDF6"/>
<circle id="Ellipse 9_3" cx="0.683549" cy="0.683549" r="0.683549" transform="matrix(0.504952 -0.863147 -0.863147 -0.504952 44.0647 44.3916)" fill="#92BDF6"/>
<circle id="Ellipse 5_3" cx="0.683549" cy="0.683549" r="0.683549" transform="matrix(0.504952 -0.863147 -0.863147 -0.504952 50.9678 32.5908)" fill="#92BDF6"/>
<circle id="Ellipse 10_3" cx="0.683549" cy="0.683549" r="0.683549" transform="matrix(0.504952 -0.863147 -0.863147 -0.504952 42.3391 47.3418)" fill="#92BDF6"/>
<circle id="Ellipse 6_3" cx="0.683549" cy="0.683549" r="0.683549" transform="matrix(0.504952 -0.863147 -0.863147 -0.504952 49.2427 35.5425)" fill="#92BDF6"/>
<circle id="Ellipse 11_3" cx="0.683549" cy="0.683549" r="0.683549" transform="matrix(0.504952 -0.863147 -0.863147 -0.504952 40.6133 50.292)" fill="#92BDF6"/>
<circle id="Ellipse 12" cx="0.683549" cy="0.683549" r="0.683549" transform="matrix(0.504952 -0.863147 -0.863147 -0.504952 38.9041 53.252)" fill="#92BDF6"/>
<circle id="Ellipse 13" cx="0.683549" cy="0.683549" r="0.683549" transform="matrix(0.504952 -0.863147 -0.863147 -0.504952 37.1948 56.2114)" fill="#92BDF6"/>
<circle id="Ellipse 15" cx="0.683549" cy="0.683549" r="0.683549" transform="matrix(0.504952 -0.863147 -0.863147 -0.504952 35.4861 59.1714)" fill="#92BDF6"/>
<circle id="Ellipse 16" cx="0.683549" cy="0.683549" r="0.683549" transform="matrix(0.504952 -0.863147 -0.863147 -0.504952 33.7776 62.1309)" fill="#92BDF6"/>
</g>
<g id="Group 14">
<circle id="Ellipse 2_4" cx="0.683549" cy="0.683549" r="0.683549" transform="matrix(0.504952 -0.863147 -0.863147 -0.504952 59.1055 25.4492)" fill="#92BDF6"/>
<circle id="Ellipse 14_2" cx="0.683549" cy="0.683549" r="0.683549" transform="matrix(0.504952 -0.863147 -0.863147 -0.504952 60.8137 22.4902)" fill="#92BDF6"/>
<circle id="Ellipse 7_4" cx="0.683549" cy="0.683549" r="0.683549" transform="matrix(0.504952 -0.863147 -0.863147 -0.504952 50.4766 40.1997)" fill="#92BDF6"/>
<circle id="Ellipse 3_4" cx="0.683549" cy="0.683549" r="0.683549" transform="matrix(0.504952 -0.863147 -0.863147 -0.504952 57.3792 28.3994)" fill="#92BDF6"/>
<circle id="Ellipse 8_4" cx="0.683549" cy="0.683549" r="0.683549" transform="matrix(0.504952 -0.863147 -0.863147 -0.504952 48.7507 43.1494)" fill="#92BDF6"/>
<circle id="Ellipse 4_4" cx="0.683549" cy="0.683549" r="0.683549" transform="matrix(0.504952 -0.863147 -0.863147 -0.504952 55.6533 31.3496)" fill="#92BDF6"/>
<circle id="Ellipse 9_4" cx="0.683549" cy="0.683549" r="0.683549" transform="matrix(0.504952 -0.863147 -0.863147 -0.504952 47.0249 46.1001)" fill="#92BDF6"/>
<circle id="Ellipse 5_4" cx="0.683549" cy="0.683549" r="0.683549" transform="matrix(0.504952 -0.863147 -0.863147 -0.504952 53.9272 34.2993)" fill="#92BDF6"/>
<circle id="Ellipse 10_4" cx="0.683549" cy="0.683549" r="0.683549" transform="matrix(0.504952 -0.863147 -0.863147 -0.504952 45.2993 49.0503)" fill="#92BDF6"/>
<circle id="Ellipse 6_4" cx="0.683549" cy="0.683549" r="0.683549" transform="matrix(0.504952 -0.863147 -0.863147 -0.504952 52.2024 37.2505)" fill="#92BDF6"/>
<circle id="Ellipse 11_4" cx="0.683549" cy="0.683549" r="0.683549" transform="matrix(0.504952 -0.863147 -0.863147 -0.504952 43.573 52)" fill="#92BDF6"/>
<circle id="Ellipse 12_2" cx="0.683549" cy="0.683549" r="0.683549" transform="matrix(0.504952 -0.863147 -0.863147 -0.504952 41.8643 54.9604)" fill="#92BDF6"/>
<circle id="Ellipse 13_2" cx="0.683549" cy="0.683549" r="0.683549" transform="matrix(0.504952 -0.863147 -0.863147 -0.504952 40.155 57.9199)" fill="#92BDF6"/>
<circle id="Ellipse 15_2" cx="0.683549" cy="0.683549" r="0.683549" transform="matrix(0.504952 -0.863147 -0.863147 -0.504952 38.4458 60.8799)" fill="#92BDF6"/>
<circle id="Ellipse 16_2" cx="0.683549" cy="0.683549" r="0.683549" transform="matrix(0.504952 -0.863147 -0.863147 -0.504952 36.7371 63.8394)" fill="#92BDF6"/>
</g>
<g id="Group 16">
<circle id="Ellipse 2_5" cx="0.683549" cy="0.683549" r="0.683549" transform="matrix(0.504952 -0.863147 -0.863147 -0.504952 23.6375 4.97119)" fill="#92BDF6"/>
<circle id="Ellipse 14_3" cx="0.683549" cy="0.683549" r="0.683549" transform="matrix(0.504952 -0.863147 -0.863147 -0.504952 25.3459 2.01123)" fill="#92BDF6"/>
<circle id="Ellipse 7_5" cx="0.683549" cy="0.683549" r="0.683549" transform="matrix(0.504952 -0.863147 -0.863147 -0.504952 15.0083 19.7212)" fill="#92BDF6"/>
<circle id="Ellipse 3_5" cx="0.683549" cy="0.683549" r="0.683549" transform="matrix(0.504952 -0.863147 -0.863147 -0.504952 21.9109 7.92041)" fill="#92BDF6"/>
<circle id="Ellipse 8_5" cx="0.683549" cy="0.683549" r="0.683549" transform="matrix(0.504952 -0.863147 -0.863147 -0.504952 13.2825 22.6704)" fill="#92BDF6"/>
<circle id="Ellipse 4_5" cx="0.683549" cy="0.683549" r="0.683549" transform="matrix(0.504952 -0.863147 -0.863147 -0.504952 20.1855 10.8701)" fill="#92BDF6"/>
<circle id="Ellipse 9_5" cx="0.683549" cy="0.683549" r="0.683549" transform="matrix(0.504952 -0.863147 -0.863147 -0.504952 11.5566 25.6216)" fill="#92BDF6"/>
<circle id="Ellipse 5_5" cx="0.683549" cy="0.683549" r="0.683549" transform="matrix(0.504952 -0.863147 -0.863147 -0.504952 18.4597 13.8218)" fill="#92BDF6"/>
<circle id="Ellipse 10_5" cx="0.683549" cy="0.683549" r="0.683549" transform="matrix(0.504952 -0.863147 -0.863147 -0.504952 9.8313 28.5718)" fill="#92BDF6"/>
<circle id="Ellipse 6_5" cx="0.683549" cy="0.683549" r="0.683549" transform="matrix(0.504952 -0.863147 -0.863147 -0.504952 16.7344 16.771)" fill="#92BDF6"/>
<circle id="Ellipse 11_5" cx="0.683549" cy="0.683549" r="0.683549" transform="matrix(0.504952 -0.863147 -0.863147 -0.504952 8.10498 31.521)" fill="#92BDF6"/>
<circle id="Ellipse 12_3" cx="0.683549" cy="0.683549" r="0.683549" transform="matrix(0.504952 -0.863147 -0.863147 -0.504952 6.39624 34.4819)" fill="#92BDF6"/>
<circle id="Ellipse 15_3" cx="0.683549" cy="0.683549" r="0.683549" transform="matrix(0.504952 -0.863147 -0.863147 -0.504952 2.92725 40.3721)" fill="#92BDF6"/>
<circle id="Ellipse 13_3" cx="0.683549" cy="0.683549" r="0.683549" transform="matrix(0.504952 -0.863147 -0.863147 -0.504952 4.68701 37.4419)" fill="#92BDF6"/>
<circle id="Ellipse 16_3" cx="0.683549" cy="0.683549" r="0.683549" transform="matrix(0.504952 -0.863147 -0.863147 -0.504952 1.21802 43.332)" fill="#92BDF6"/>
</g>
<g id="Group 2">
<circle id="Ellipse 2_6" cx="0.683549" cy="0.683549" r="0.683549" transform="matrix(-0.866025 -0.5 -0.5 0.866025 25.3726 8.33447)" fill="#92BDF6"/>
<circle id="Ellipse 7_6" cx="0.683549" cy="0.683549" r="0.683549" transform="matrix(-0.866025 -0.5 -0.5 0.866025 40.1719 16.8774)" fill="#92BDF6"/>
<circle id="Ellipse 3_6" cx="0.683549" cy="0.683549" r="0.683549" transform="matrix(-0.866025 -0.5 -0.5 0.866025 28.3325 10.0425)" fill="#92BDF6"/>
<circle id="Ellipse 8_6" cx="0.683549" cy="0.683549" r="0.683549" transform="matrix(-0.866025 -0.5 -0.5 0.866025 43.1316 18.5874)" fill="#92BDF6"/>
<circle id="Ellipse 4_6" cx="0.683549" cy="0.683549" r="0.683549" transform="matrix(-0.866025 -0.5 -0.5 0.866025 31.2922 11.751)" fill="#92BDF6"/>
<circle id="Ellipse 9_6" cx="0.683549" cy="0.683549" r="0.683549" transform="matrix(-0.866025 -0.5 -0.5 0.866025 46.0916 20.2964)" fill="#92BDF6"/>
<circle id="Ellipse 5_6" cx="0.683549" cy="0.683549" r="0.683549" transform="matrix(-0.866025 -0.5 -0.5 0.866025 34.2522 13.4604)" fill="#92BDF6"/>
<circle id="Ellipse 10_6" cx="0.683549" cy="0.683549" r="0.683549" transform="matrix(-0.866025 -0.5 -0.5 0.866025 49.0518 22.0054)" fill="#92BDF6"/>
<circle id="Ellipse 6_6" cx="0.683549" cy="0.683549" r="0.683549" transform="matrix(-0.866025 -0.5 -0.5 0.866025 37.2124 15.1699)" fill="#92BDF6"/>
<circle id="Ellipse 11_6" cx="0.683549" cy="0.683549" r="0.683549" transform="matrix(-0.866025 -0.5 -0.5 0.866025 52.0112 23.7148)" fill="#92BDF6"/>
</g>
<g id="Group 3">
<circle id="Ellipse 2_7" cx="0.683549" cy="0.683549" r="0.683549" transform="matrix(-0.866025 -0.5 -0.5 0.866025 23.6636 11.293)" fill="#92BDF6"/>
<circle id="Ellipse 7_7" cx="0.683549" cy="0.683549" r="0.683549" transform="matrix(-0.866025 -0.5 -0.5 0.866025 38.4624 19.8364)" fill="#92BDF6"/>
<circle id="Ellipse 3_7" cx="0.683549" cy="0.683549" r="0.683549" transform="matrix(-0.866025 -0.5 -0.5 0.866025 26.6226 13.0024)" fill="#92BDF6"/>
<circle id="Ellipse 8_7" cx="0.683549" cy="0.683549" r="0.683549" transform="matrix(-0.866025 -0.5 -0.5 0.866025 41.4226 21.5454)" fill="#92BDF6"/>
<circle id="Ellipse 4_7" cx="0.683549" cy="0.683549" r="0.683549" transform="matrix(-0.866025 -0.5 -0.5 0.866025 29.5837 14.71)" fill="#92BDF6"/>
<circle id="Ellipse 9_7" cx="0.683549" cy="0.683549" r="0.683549" transform="matrix(-0.866025 -0.5 -0.5 0.866025 44.3821 23.2549)" fill="#92BDF6"/>
<circle id="Ellipse 5_7" cx="0.683549" cy="0.683549" r="0.683549" transform="matrix(-0.866025 -0.5 -0.5 0.866025 32.5427 16.4194)" fill="#92BDF6"/>
<circle id="Ellipse 10_7" cx="0.683549" cy="0.683549" r="0.683549" transform="matrix(-0.866025 -0.5 -0.5 0.866025 47.3418 24.9634)" fill="#92BDF6"/>
<circle id="Ellipse 6_7" cx="0.683549" cy="0.683549" r="0.683549" transform="matrix(-0.866025 -0.5 -0.5 0.866025 35.5024 18.1284)" fill="#92BDF6"/>
<circle id="Ellipse 11_7" cx="0.683549" cy="0.683549" r="0.683549" transform="matrix(-0.866025 -0.5 -0.5 0.866025 50.3018 26.6724)" fill="#92BDF6"/>
</g>
<g id="Group 4">
<circle id="Ellipse 2_8" cx="0.683549" cy="0.683549" r="0.683549" transform="matrix(-0.866025 -0.5 -0.5 0.866025 21.9546 14.2524)" fill="#92BDF6"/>
<circle id="Ellipse 7_8" cx="0.683549" cy="0.683549" r="0.683549" transform="matrix(-0.866025 -0.5 -0.5 0.866025 36.7539 22.7954)" fill="#92BDF6"/>
<circle id="Ellipse 3_8" cx="0.683549" cy="0.683549" r="0.683549" transform="matrix(-0.866025 -0.5 -0.5 0.866025 24.9146 15.9604)" fill="#92BDF6"/>
<circle id="Ellipse 8_8" cx="0.683549" cy="0.683549" r="0.683549" transform="matrix(-0.866025 -0.5 -0.5 0.866025 39.7136 24.5049)" fill="#92BDF6"/>
<circle id="Ellipse 4_8" cx="0.683549" cy="0.683549" r="0.683549" transform="matrix(-0.866025 -0.5 -0.5 0.866025 27.8743 17.6689)" fill="#92BDF6"/>
<circle id="Ellipse 9_8" cx="0.683549" cy="0.683549" r="0.683549" transform="matrix(-0.866025 -0.5 -0.5 0.866025 42.6736 26.2144)" fill="#92BDF6"/>
<circle id="Ellipse 5_8" cx="0.683549" cy="0.683549" r="0.683549" transform="matrix(-0.866025 -0.5 -0.5 0.866025 30.8342 19.3779)" fill="#92BDF6"/>
<circle id="Ellipse 10_8" cx="0.683549" cy="0.683549" r="0.683549" transform="matrix(-0.866025 -0.5 -0.5 0.866025 45.6338 27.9233)" fill="#92BDF6"/>
<circle id="Ellipse 6_8" cx="0.683549" cy="0.683549" r="0.683549" transform="matrix(-0.866025 -0.5 -0.5 0.866025 33.7944 21.0879)" fill="#92BDF6"/>
<circle id="Ellipse 11_8" cx="0.683549" cy="0.683549" r="0.683549" transform="matrix(-0.866025 -0.5 -0.5 0.866025 48.5938 29.6323)" fill="#92BDF6"/>
</g>
<g id="Group 5">
<circle id="Ellipse 2_9" cx="0.683549" cy="0.683549" r="0.683549" transform="matrix(-0.866025 -0.5 -0.5 0.866025 20.2466 17.2134)" fill="#92BDF6"/>
<circle id="Ellipse 7_9" cx="0.683549" cy="0.683549" r="0.683549" transform="matrix(-0.866025 -0.5 -0.5 0.866025 35.0459 25.7563)" fill="#92BDF6"/>
<circle id="Ellipse 3_9" cx="0.683549" cy="0.683549" r="0.683549" transform="matrix(-0.866025 -0.5 -0.5 0.866025 23.2065 18.9214)" fill="#92BDF6"/>
<circle id="Ellipse 8_9" cx="0.683549" cy="0.683549" r="0.683549" transform="matrix(-0.866025 -0.5 -0.5 0.866025 38.0056 27.4658)" fill="#92BDF6"/>
<circle id="Ellipse 4_9" cx="0.683549" cy="0.683549" r="0.683549" transform="matrix(-0.866025 -0.5 -0.5 0.866025 26.1663 20.6299)" fill="#92BDF6"/>
<circle id="Ellipse 9_9" cx="0.683549" cy="0.683549" r="0.683549" transform="matrix(-0.866025 -0.5 -0.5 0.866025 40.9656 29.1753)" fill="#92BDF6"/>
<circle id="Ellipse 5_9" cx="0.683549" cy="0.683549" r="0.683549" transform="matrix(-0.866025 -0.5 -0.5 0.866025 29.1257 22.3394)" fill="#92BDF6"/>
<circle id="Ellipse 10_9" cx="0.683549" cy="0.683549" r="0.683549" transform="matrix(-0.866025 -0.5 -0.5 0.866025 43.926 30.8838)" fill="#92BDF6"/>
<circle id="Ellipse 6_9" cx="0.683549" cy="0.683549" r="0.683549" transform="matrix(-0.866025 -0.5 -0.5 0.866025 32.0864 24.0488)" fill="#92BDF6"/>
<circle id="Ellipse 11_9" cx="0.683549" cy="0.683549" r="0.683549" transform="matrix(-0.866025 -0.5 -0.5 0.866025 46.8857 32.5928)" fill="#92BDF6"/>
</g>
<g id="Group 6">
<circle id="Ellipse 2_10" cx="0.683549" cy="0.683549" r="0.683549" transform="matrix(-0.866025 -0.5 -0.5 0.866025 18.5371 20.1748)" fill="#92BDF6"/>
<circle id="Ellipse 7_10" cx="0.683549" cy="0.683549" r="0.683549" transform="matrix(-0.866025 -0.5 -0.5 0.866025 33.3369 28.7178)" fill="#92BDF6"/>
<circle id="Ellipse 3_10" cx="0.683549" cy="0.683549" r="0.683549" transform="matrix(-0.866025 -0.5 -0.5 0.866025 21.4971 21.8838)" fill="#92BDF6"/>
<circle id="Ellipse 8_10" cx="0.683549" cy="0.683549" r="0.683549" transform="matrix(-0.866025 -0.5 -0.5 0.866025 36.2964 30.4272)" fill="#92BDF6"/>
<circle id="Ellipse 4_10" cx="0.683549" cy="0.683549" r="0.683549" transform="matrix(-0.866025 -0.5 -0.5 0.866025 24.4568 23.5923)" fill="#92BDF6"/>
<circle id="Ellipse 9_10" cx="0.683549" cy="0.683549" r="0.683549" transform="matrix(-0.866025 -0.5 -0.5 0.866025 39.2561 32.1367)" fill="#92BDF6"/>
<circle id="Ellipse 5_10" cx="0.683549" cy="0.683549" r="0.683549" transform="matrix(-0.866025 -0.5 -0.5 0.866025 27.4172 25.3008)" fill="#92BDF6"/>
<circle id="Ellipse 10_10" cx="0.683549" cy="0.683549" r="0.683549" transform="matrix(-0.866025 -0.5 -0.5 0.866025 42.2166 33.8447)" fill="#92BDF6"/>
<circle id="Ellipse 6_10" cx="0.683549" cy="0.683549" r="0.683549" transform="matrix(-0.866025 -0.5 -0.5 0.866025 30.377 27.0098)" fill="#92BDF6"/>
<circle id="Ellipse 11_10" cx="0.683549" cy="0.683549" r="0.683549" transform="matrix(-0.866025 -0.5 -0.5 0.866025 45.1763 35.5547)" fill="#92BDF6"/>
</g>
<g id="Group 7">
<circle id="Ellipse 2_11" cx="0.683549" cy="0.683549" r="0.683549" transform="matrix(-0.866025 -0.5 -0.5 0.866025 16.8281 23.1338)" fill="#92BDF6"/>
<circle id="Ellipse 7_11" cx="0.683549" cy="0.683549" r="0.683549" transform="matrix(-0.866025 -0.5 -0.5 0.866025 31.6274 31.6772)" fill="#92BDF6"/>
<circle id="Ellipse 3_11" cx="0.683549" cy="0.683549" r="0.683549" transform="matrix(-0.866025 -0.5 -0.5 0.866025 19.7881 24.8418)" fill="#92BDF6"/>
<circle id="Ellipse 8_11" cx="0.683549" cy="0.683549" r="0.683549" transform="matrix(-0.866025 -0.5 -0.5 0.866025 34.5872 33.3867)" fill="#92BDF6"/>
<circle id="Ellipse 4_11" cx="0.683549" cy="0.683549" r="0.683549" transform="matrix(-0.866025 -0.5 -0.5 0.866025 22.7473 26.5503)" fill="#92BDF6"/>
<circle id="Ellipse 9_11" cx="0.683549" cy="0.683549" r="0.683549" transform="matrix(-0.866025 -0.5 -0.5 0.866025 37.5476 35.0962)" fill="#92BDF6"/>
<circle id="Ellipse 5_11" cx="0.683549" cy="0.683549" r="0.683549" transform="matrix(-0.866025 -0.5 -0.5 0.866025 25.7083 28.2593)" fill="#92BDF6"/>
<circle id="Ellipse 10_11" cx="0.683549" cy="0.683549" r="0.683549" transform="matrix(-0.866025 -0.5 -0.5 0.866025 40.5076 36.8037)" fill="#92BDF6"/>
<circle id="Ellipse 6_11" cx="0.683549" cy="0.683549" r="0.683549" transform="matrix(-0.866025 -0.5 -0.5 0.866025 28.6675 29.9692)" fill="#92BDF6"/>
<circle id="Ellipse 11_11" cx="0.683549" cy="0.683549" r="0.683549" transform="matrix(-0.866025 -0.5 -0.5 0.866025 43.4668 38.5132)" fill="#92BDF6"/>
</g>
<g id="Group 8">
<circle id="Ellipse 2_12" cx="0.683549" cy="0.683549" r="0.683549" transform="matrix(-0.866025 -0.5 -0.5 0.866025 15.1201 26.0913)" fill="#92BDF6"/>
<circle id="Ellipse 7_12" cx="0.683549" cy="0.683549" r="0.683549" transform="matrix(-0.866025 -0.5 -0.5 0.866025 29.9189 34.6362)" fill="#92BDF6"/>
<circle id="Ellipse 3_12" cx="0.683549" cy="0.683549" r="0.683549" transform="matrix(-0.866025 -0.5 -0.5 0.866025 18.0791 27.8008)" fill="#92BDF6"/>
<circle id="Ellipse 8_12" cx="0.683549" cy="0.683549" r="0.683549" transform="matrix(-0.866025 -0.5 -0.5 0.866025 32.8789 36.3457)" fill="#92BDF6"/>
<circle id="Ellipse 4_12" cx="0.683549" cy="0.683549" r="0.683549" transform="matrix(-0.866025 -0.5 -0.5 0.866025 21.04 29.5093)" fill="#92BDF6"/>
<circle id="Ellipse 9_12" cx="0.683549" cy="0.683549" r="0.683549" transform="matrix(-0.866025 -0.5 -0.5 0.866025 35.8386 38.0547)" fill="#92BDF6"/>
<circle id="Ellipse 5_12" cx="0.683549" cy="0.683549" r="0.683549" transform="matrix(-0.866025 -0.5 -0.5 0.866025 23.9988 31.2178)" fill="#92BDF6"/>
<circle id="Ellipse 10_12" cx="0.683549" cy="0.683549" r="0.683549" transform="matrix(-0.866025 -0.5 -0.5 0.866025 38.7981 39.7627)" fill="#92BDF6"/>
<circle id="Ellipse 6_12" cx="0.683549" cy="0.683549" r="0.683549" transform="matrix(-0.866025 -0.5 -0.5 0.866025 26.9592 32.9272)" fill="#92BDF6"/>
<circle id="Ellipse 11_12" cx="0.683549" cy="0.683549" r="0.683549" transform="matrix(-0.866025 -0.5 -0.5 0.866025 41.7583 41.4722)" fill="#92BDF6"/>
</g>
<g id="Group 9">
<circle id="Ellipse 2_13" cx="0.683549" cy="0.683549" r="0.683549" transform="matrix(-0.866025 -0.5 -0.5 0.866025 13.4099 29.0513)" fill="#92BDF6"/>
<circle id="Ellipse 7_13" cx="0.683549" cy="0.683549" r="0.683549" transform="matrix(-0.866025 -0.5 -0.5 0.866025 28.209 37.5942)" fill="#92BDF6"/>
<circle id="Ellipse 3_13" cx="0.683549" cy="0.683549" r="0.683549" transform="matrix(-0.866025 -0.5 -0.5 0.866025 16.3691 30.7603)" fill="#92BDF6"/>
<circle id="Ellipse 8_13" cx="0.683549" cy="0.683549" r="0.683549" transform="matrix(-0.866025 -0.5 -0.5 0.866025 31.1689 39.3037)" fill="#92BDF6"/>
<circle id="Ellipse 4_13" cx="0.683549" cy="0.683549" r="0.683549" transform="matrix(-0.866025 -0.5 -0.5 0.866025 19.3296 32.4683)" fill="#92BDF6"/>
<circle id="Ellipse 9_13" cx="0.683549" cy="0.683549" r="0.683549" transform="matrix(-0.866025 -0.5 -0.5 0.866025 34.1282 41.0132)" fill="#92BDF6"/>
<circle id="Ellipse 5_13" cx="0.683549" cy="0.683549" r="0.683549" transform="matrix(-0.866025 -0.5 -0.5 0.866025 22.2888 34.1763)" fill="#92BDF6"/>
<circle id="Ellipse 10_13" cx="0.683549" cy="0.683549" r="0.683549" transform="matrix(-0.866025 -0.5 -0.5 0.866025 37.0891 42.7217)" fill="#92BDF6"/>
<circle id="Ellipse 6_13" cx="0.683549" cy="0.683549" r="0.683549" transform="matrix(-0.866025 -0.5 -0.5 0.866025 25.2493 35.8867)" fill="#92BDF6"/>
<circle id="Ellipse 11_13" cx="0.683549" cy="0.683549" r="0.683549" transform="matrix(-0.866025 -0.5 -0.5 0.866025 40.0483 44.4307)" fill="#92BDF6"/>
</g>
<g id="Group 10">
<circle id="Ellipse 2_14" cx="0.683549" cy="0.683549" r="0.683549" transform="matrix(-0.866025 -0.5 -0.5 0.866025 11.7014 32.0112)" fill="#92BDF6"/>
<circle id="Ellipse 7_14" cx="0.683549" cy="0.683549" r="0.683549" transform="matrix(-0.866025 -0.5 -0.5 0.866025 26.501 40.5547)" fill="#92BDF6"/>
<circle id="Ellipse 3_14" cx="0.683549" cy="0.683549" r="0.683549" transform="matrix(-0.866025 -0.5 -0.5 0.866025 14.6611 33.7197)" fill="#92BDF6"/>
<circle id="Ellipse 8_14" cx="0.683549" cy="0.683549" r="0.683549" transform="matrix(-0.866025 -0.5 -0.5 0.866025 29.4604 42.2642)" fill="#92BDF6"/>
<circle id="Ellipse 4_14" cx="0.683549" cy="0.683549" r="0.683549" transform="matrix(-0.866025 -0.5 -0.5 0.866025 17.6211 35.4282)" fill="#92BDF6"/>
<circle id="Ellipse 9_14" cx="0.683549" cy="0.683549" r="0.683549" transform="matrix(-0.866025 -0.5 -0.5 0.866025 32.4202 43.9736)" fill="#92BDF6"/>
<circle id="Ellipse 5_14" cx="0.683549" cy="0.683549" r="0.683549" transform="matrix(-0.866025 -0.5 -0.5 0.866025 20.5803 37.1377)" fill="#92BDF6"/>
<circle id="Ellipse 10_14" cx="0.683549" cy="0.683549" r="0.683549" transform="matrix(-0.866025 -0.5 -0.5 0.866025 35.3806 45.6816)" fill="#92BDF6"/>
<circle id="Ellipse 6_14" cx="0.683549" cy="0.683549" r="0.683549" transform="matrix(-0.866025 -0.5 -0.5 0.866025 23.5413 38.8462)" fill="#92BDF6"/>
<circle id="Ellipse 11_14" cx="0.683549" cy="0.683549" r="0.683549" transform="matrix(-0.866025 -0.5 -0.5 0.866025 38.3403 47.3916)" fill="#92BDF6"/>
</g>
<g id="Group 11">
<circle id="Ellipse 2_15" cx="0.683549" cy="0.683549" r="0.683549" transform="matrix(-0.866025 -0.5 -0.5 0.866025 9.99243 34.9736)" fill="#92BDF6"/>
<circle id="Ellipse 7_15" cx="0.683549" cy="0.683549" r="0.683549" transform="matrix(-0.866025 -0.5 -0.5 0.866025 24.7917 43.5166)" fill="#92BDF6"/>
<circle id="Ellipse 3_15" cx="0.683549" cy="0.683549" r="0.683549" transform="matrix(-0.866025 -0.5 -0.5 0.866025 12.9524 36.6816)" fill="#92BDF6"/>
<circle id="Ellipse 8_15" cx="0.683549" cy="0.683549" r="0.683549" transform="matrix(-0.866025 -0.5 -0.5 0.866025 27.7515 45.2266)" fill="#92BDF6"/>
<circle id="Ellipse 4_15" cx="0.683549" cy="0.683549" r="0.683549" transform="matrix(-0.866025 -0.5 -0.5 0.866025 15.9121 38.3901)" fill="#92BDF6"/>
<circle id="Ellipse 9_15" cx="0.683549" cy="0.683549" r="0.683549" transform="matrix(-0.866025 -0.5 -0.5 0.866025 30.7114 46.9355)" fill="#92BDF6"/>
<circle id="Ellipse 5_15" cx="0.683549" cy="0.683549" r="0.683549" transform="matrix(-0.866025 -0.5 -0.5 0.866025 18.8721 40.0996)" fill="#92BDF6"/>
<circle id="Ellipse 10_15" cx="0.683549" cy="0.683549" r="0.683549" transform="matrix(-0.866025 -0.5 -0.5 0.866025 33.6716 48.6445)" fill="#92BDF6"/>
<circle id="Ellipse 6_15" cx="0.683549" cy="0.683549" r="0.683549" transform="matrix(-0.866025 -0.5 -0.5 0.866025 21.8323 41.8091)" fill="#92BDF6"/>
<circle id="Ellipse 11_15" cx="0.683549" cy="0.683549" r="0.683549" transform="matrix(-0.866025 -0.5 -0.5 0.866025 36.6316 50.354)" fill="#92BDF6"/>
</g>
<g id="Group 12">
<circle id="Ellipse 2_16" cx="0.683549" cy="0.683549" r="0.683549" transform="matrix(-0.866025 -0.5 -0.5 0.866025 8.28467 37.9326)" fill="#92BDF6"/>
<circle id="Ellipse 7_16" cx="0.683549" cy="0.683549" r="0.683549" transform="matrix(-0.866025 -0.5 -0.5 0.866025 23.084 46.4761)" fill="#92BDF6"/>
<circle id="Ellipse 3_16" cx="0.683549" cy="0.683549" r="0.683549" transform="matrix(-0.866025 -0.5 -0.5 0.866025 11.2444 39.6421)" fill="#92BDF6"/>
<circle id="Ellipse 8_16" cx="0.683549" cy="0.683549" r="0.683549" transform="matrix(-0.866025 -0.5 -0.5 0.866025 26.0437 48.1855)" fill="#92BDF6"/>
<circle id="Ellipse 4_16" cx="0.683549" cy="0.683549" r="0.683549" transform="matrix(-0.866025 -0.5 -0.5 0.866025 14.2043 41.3501)" fill="#92BDF6"/>
<circle id="Ellipse 9_16" cx="0.683549" cy="0.683549" r="0.683549" transform="matrix(-0.866025 -0.5 -0.5 0.866025 29.0037 49.895)" fill="#92BDF6"/>
<circle id="Ellipse 5_16" cx="0.683549" cy="0.683549" r="0.683549" transform="matrix(-0.866025 -0.5 -0.5 0.866025 17.1641 43.0581)" fill="#92BDF6"/>
<circle id="Ellipse 10_16" cx="0.683549" cy="0.683549" r="0.683549" transform="matrix(-0.866025 -0.5 -0.5 0.866025 31.9634 51.603)" fill="#92BDF6"/>
<circle id="Ellipse 6_16" cx="0.683549" cy="0.683549" r="0.683549" transform="matrix(-0.866025 -0.5 -0.5 0.866025 20.1245 44.7676)" fill="#92BDF6"/>
<circle id="Ellipse 11_16" cx="0.683549" cy="0.683549" r="0.683549" transform="matrix(-0.866025 -0.5 -0.5 0.866025 34.9238 53.312)" fill="#92BDF6"/>
</g>
<g id="Group 17">
<circle id="Ellipse 2_17" cx="0.683549" cy="0.683549" r="0.683549" transform="matrix(-0.866025 -0.5 -0.5 0.866025 6.57471 40.8921)" fill="#92BDF6"/>
<circle id="Ellipse 7_17" cx="0.683549" cy="0.683549" r="0.683549" transform="matrix(-0.866025 -0.5 -0.5 0.866025 21.374 49.4355)" fill="#92BDF6"/>
<circle id="Ellipse 3_17" cx="0.683549" cy="0.683549" r="0.683549" transform="matrix(-0.866025 -0.5 -0.5 0.866025 9.53442 42.6001)" fill="#92BDF6"/>
<circle id="Ellipse 8_17" cx="0.683549" cy="0.683549" r="0.683549" transform="matrix(-0.866025 -0.5 -0.5 0.866025 24.3337 51.145)" fill="#92BDF6"/>
<circle id="Ellipse 4_17" cx="0.683549" cy="0.683549" r="0.683549" transform="matrix(-0.866025 -0.5 -0.5 0.866025 12.4944 44.3096)" fill="#92BDF6"/>
<circle id="Ellipse 9_17" cx="0.683549" cy="0.683549" r="0.683549" transform="matrix(-0.866025 -0.5 -0.5 0.866025 27.2937 52.8545)" fill="#92BDF6"/>
<circle id="Ellipse 5_17" cx="0.683549" cy="0.683549" r="0.683549" transform="matrix(-0.866025 -0.5 -0.5 0.866025 15.4543 46.0171)" fill="#92BDF6"/>
<circle id="Ellipse 10_17" cx="0.683549" cy="0.683549" r="0.683549" transform="matrix(-0.866025 -0.5 -0.5 0.866025 30.2534 54.5625)" fill="#92BDF6"/>
<circle id="Ellipse 6_17" cx="0.683549" cy="0.683549" r="0.683549" transform="matrix(-0.866025 -0.5 -0.5 0.866025 18.4136 47.7271)" fill="#92BDF6"/>
<circle id="Ellipse 11_17" cx="0.683549" cy="0.683549" r="0.683549" transform="matrix(-0.866025 -0.5 -0.5 0.866025 33.2139 56.2715)" fill="#92BDF6"/>
</g>
<g id="Group 18">
<circle id="Ellipse 2_18" cx="0.683549" cy="0.683549" r="0.683549" transform="matrix(-0.866025 -0.5 -0.5 0.866025 4.8667 43.8511)" fill="#92BDF6"/>
<circle id="Ellipse 7_18" cx="0.683549" cy="0.683549" r="0.683549" transform="matrix(-0.866025 -0.5 -0.5 0.866025 19.6655 52.396)" fill="#92BDF6"/>
<circle id="Ellipse 3_18" cx="0.683549" cy="0.683549" r="0.683549" transform="matrix(-0.866025 -0.5 -0.5 0.866025 7.82666 45.5601)" fill="#92BDF6"/>
<circle id="Ellipse 8_18" cx="0.683549" cy="0.683549" r="0.683549" transform="matrix(-0.866025 -0.5 -0.5 0.866025 22.6252 54.105)" fill="#92BDF6"/>
<circle id="Ellipse 4_18" cx="0.683549" cy="0.683549" r="0.683549" transform="matrix(-0.866025 -0.5 -0.5 0.866025 10.7864 47.269)" fill="#92BDF6"/>
<circle id="Ellipse 9_18" cx="0.683549" cy="0.683549" r="0.683549" transform="matrix(-0.866025 -0.5 -0.5 0.866025 25.5852 55.8145)" fill="#92BDF6"/>
<circle id="Ellipse 5_18" cx="0.683549" cy="0.683549" r="0.683549" transform="matrix(-0.866025 -0.5 -0.5 0.866025 13.7454 48.978)" fill="#92BDF6"/>
<circle id="Ellipse 10_18" cx="0.683549" cy="0.683549" r="0.683549" transform="matrix(-0.866025 -0.5 -0.5 0.866025 28.5454 57.5225)" fill="#92BDF6"/>
<circle id="Ellipse 6_18" cx="0.683549" cy="0.683549" r="0.683549" transform="matrix(-0.866025 -0.5 -0.5 0.866025 16.7056 50.6875)" fill="#92BDF6"/>
<circle id="Ellipse 11_18" cx="0.683549" cy="0.683549" r="0.683549" transform="matrix(-0.866025 -0.5 -0.5 0.866025 31.5049 59.231)" fill="#92BDF6"/>
</g>
</g>
</svg>
